<svg width="272" height="272" xmlns="http://www.w3.org/2000/svg">

 <title/>
 <g>
  <title>background</title>
  <rect fill="none" id="canvas_background" height="402" width="582" y="-1" x="-1"/>
 </g>
 <g>
  <title>Layer 1</title>
  <g stroke="null" id="svg_8">
   <path stroke="null" fill="#fff176" id="svg_1" d="m151.422493,144.233747a48.826775,52.401218 0 0 1 0,-32.385699l-4.098985,-1.430368c-4.476192,10.15523 -6.21853,21.912395 -4.560614,33.816068l8.659599,0z" class="cls-1"/>
   <path stroke="null" fill="#8bc24a" id="svg_2" d="m161.7436,117.513617l0.625086,-3.024593l-1.963274,2.698808l-5.358138,-1.291573l0.625086,-3.024593l-1.963274,2.698808l-7.642936,-1.864105c3.412827,-3.94026 8.417109,-5.894968 13.417798,-4.680505s8.760188,5.299303 10.292367,10.436677l-8.032717,-1.948925z" class="cls-2"/>
   <path stroke="null" fill="#8bc24a" id="svg_3" d="m159.119316,101.557877l-1.891425,-2.313264l0.853207,3.296402l-4.152871,3.890139l-1.891425,-2.313264l0.855003,3.296402l-5.927541,5.5634c-0.925056,-5.283881 0.587365,-10.795233 4.465415,-14.432841s9.160746,-4.512793 13.924334,-2.82411l-6.234696,5.837137z" class="cls-2"/>
   <path stroke="null" fill="#8bc24a" id="svg_4" d="m137.595156,105.087533l1.286097,-1.576875l-0.384392,2.423144l3.605023,3.383149l1.284301,-1.576875l-0.382596,2.423144l5.146184,4.830867c0.265841,-3.928694 -1.402851,-8.273775 -4.777958,-11.435236s-7.592642,-4.352792 -11.185091,-3.547005l5.408432,5.075687z" class="cls-2"/>
   <path stroke="null" fill="#8bc24a" id="svg_5" d="m132.069969,116.948795l-0.301766,-3.113268l1.681266,2.957123l5.518002,-0.626509l-0.301766,-3.113268l1.681266,2.957123l7.874649,-0.898318c-2.997899,-4.383636 -7.81717,-6.980275 -12.968742,-6.394248s-9.367312,4.208213 -11.459913,9.172093l8.277003,-0.940727z" class="cls-2"/>
   <circle stroke="null" fill="#ffd54f" id="svg_6" r="1.766719" cy="115.703488" cx="147.503131" class="cls-3"/>
   <circle stroke="null" fill="#ffd54f" id="svg_7" r="1.766719" cy="116.474576" cx="151.81407" class="cls-3"/>
  </g>
 </g>
</svg>